<?xml version="1.0" encoding="utf-8"?>
<!-- Generator: Adobe Illustrator 18.0.0, SVG Export Plug-In . SVG Version: 6.00 Build 0)  -->
<!DOCTYPE svg PUBLIC "-//W3C//DTD SVG 1.1//EN" "http://www.w3.org/Graphics/SVG/1.1/DTD/svg11.dtd">
<svg version="1.1" id="Layer_1" xmlns="http://www.w3.org/2000/svg" xmlns:xlink="http://www.w3.org/1999/xlink" x="0px" y="0px"
	 viewBox="243.2 350.7 69 100.9" enable-background="new 243.2 350.7 69 100.9" xml:space="preserve">
<g>
	<path fill="#E6E9EB" d="M299.4,432.8c-1.3-7.6-5.8-13.7-5.8-13.7l-31.8-1c0,0-2.9,8.4-4.1,14.7c-0.7,3.5,0.1,11.4,3.7,12.8H300
		C300,445.6,300.2,437.5,299.4,432.8"/>
</g>
<path fill="#E6E9EB" d="M261.2,445.6h0.3h-0.1H261.2z"/>
<path fill="#CDD3D7" d="M273.7,431.3c4.4-5.3,15.9-8.1,21.8-9.1c-1.1-1.9-1.9-3.1-1.9-3.1l-31.8-1c0,0-2.9,8.4-4.1,14.7
	c-0.7,3.5-0.5,12.8-0.5,12.8H269C269.5,443.3,270.8,434.7,273.7,431.3"/>
<g>
	<g>
		<g>
			<g>
				<defs>
					<path id="SVGID_1_" d="M281.4,427.6l-5.3,0.8c-0.8,0.1-1.4,0.9-1.3,1.7l0.8,5.3c0.1,0.7,0.7,1.3,1.5,1.3c0.1,0,0.1,0,0.2,0
						l5.3-0.8c0.8-0.1,1.4-0.9,1.3-1.7l-0.8-5.3c-0.1-0.7-0.7-1.3-1.5-1.3C281.6,427.6,281.5,427.6,281.4,427.6"/>
				</defs>
				<clipPath id="SVGID_2_">
					<use xlink:href="#SVGID_1_"  overflow="visible"/>
				</clipPath>
				
					<linearGradient id="SVGID_3_" gradientUnits="userSpaceOnUse" x1="238.3492" y1="78.2541" x2="239.3492" y2="78.2541" gradientTransform="matrix(-4.183594e-07 -9.186 9.186 -4.183594e-07 -439.492 2626.2798)">
					<stop  offset="0" style="stop-color:#26729E"/>
					<stop  offset="0.5521" style="stop-color:#26729E"/>
					<stop  offset="1" style="stop-color:#679DBB"/>
				</linearGradient>
				<rect x="274.7" y="427.6" clip-path="url(#SVGID_2_)" fill="url(#SVGID_3_)" width="9.3" height="9.1"/>
			</g>
		</g>
	</g>
</g>
<path fill="#CCCCCC" d="M281.7,427.9c0.6,0,1.1,0.4,1.2,1l0.8,5.3c0.1,0.7-0.4,1.3-1,1.4l-5.3,0.8c-0.1,0-0.1,0-0.2,0
	c-0.6,0-1.1-0.4-1.2-1l-0.8-5.3c-0.1-0.7,0.4-1.3,1-1.4l5.3-0.8C281.6,427.9,281.6,427.9,281.7,427.9 M281.7,427.3L281.7,427.3
	c-0.1,0-0.2,0-0.2,0l-5.3,0.8c-1,0.1-1.7,1.1-1.5,2l0.8,5.3c0.1,0.9,0.9,1.6,1.8,1.6c0.1,0,0.2,0,0.2,0l5.3-0.8c1-0.1,1.7-1.1,1.5-2
	l-0.8-5.3C283.3,428,282.6,427.3,281.7,427.3"/>
<g>
	<g>
		<g>
			<g>
				<defs>
					<path id="SVGID_4_" d="M281.5,427.9l-5.3,0.8c-0.7,0.1-1.1,0.7-1,1.4l0.8,5.3c0.1,0.7,0.7,1.1,1.4,1l5.3-0.8
						c0.7-0.1,1.1-0.7,1-1.4l-0.8-5.3c-0.1-0.6-0.6-1-1.2-1C281.6,427.9,281.6,427.9,281.5,427.9"/>
				</defs>
				<clipPath id="SVGID_5_">
					<use xlink:href="#SVGID_4_"  overflow="visible"/>
				</clipPath>
				
					<linearGradient id="SVGID_6_" gradientUnits="userSpaceOnUse" x1="244.7715" y1="72.1664" x2="245.7711" y2="72.1664" gradientTransform="matrix(-1.1575 -7.7557 7.7557 -1.1575 3.6013 2417.9856)">
					<stop  offset="0" style="stop-color:#26729E"/>
					<stop  offset="0.5521" style="stop-color:#26729E"/>
					<stop  offset="1" style="stop-color:#679DBB"/>
				</linearGradient>
				<polygon clip-path="url(#SVGID_5_)" fill="url(#SVGID_6_)" points="275.3,437.8 273.8,428.1 283.5,426.7 285,436.3 				"/>
			</g>
		</g>
	</g>
</g>
<path fill="#FFFFFF" d="M279.4,434.2c0.1,0.3-0.2,0.7-0.5,0.7l-1.2,0.2c-0.3,0.1-0.7-0.2-0.7-0.5l-0.6-4.1c-0.1-0.3,0.2-0.7,0.5-0.7
	l1.2-0.2c0.3-0.1,0.7,0.2,0.7,0.5L279.4,434.2z"/>
<path fill="#FFFFFF" d="M282,431.5c0.1,0.3-0.2,0.7-0.5,0.7l-1.2,0.2c-0.3,0.1-0.7-0.2-0.7-0.5l-0.2-1.8c-0.1-0.3,0.2-0.7,0.5-0.7
	l1.2-0.2c0.3-0.1,0.7,0.2,0.7,0.5L282,431.5z"/>
<g>
	<g>
		<g>
			<g>
				<defs>
					<path id="SVGID_7_" d="M281.5,427.9l-5.3,0.8c-0.7,0.1-1.1,0.7-1,1.4l0.8,5.3c0.1,0.7,0.7,1.1,1.4,1l5.3-0.8
						c0.7-0.1,1.1-0.7,1-1.4l-0.8-5.3c-0.1-0.6-0.6-1-1.2-1C281.6,427.9,281.6,427.9,281.5,427.9"/>
				</defs>
				<clipPath id="SVGID_8_">
					<use xlink:href="#SVGID_7_"  overflow="visible"/>
				</clipPath>
				
					<linearGradient id="SVGID_9_" gradientUnits="userSpaceOnUse" x1="244.7715" y1="72.1664" x2="245.7711" y2="72.1664" gradientTransform="matrix(-1.1575 -7.7557 7.7557 -1.1575 3.6013 2417.9856)">
					<stop  offset="0" style="stop-color:#26729E"/>
					<stop  offset="0.5521" style="stop-color:#26729E"/>
					<stop  offset="1" style="stop-color:#679DBB"/>
				</linearGradient>
				<polygon clip-path="url(#SVGID_8_)" fill="url(#SVGID_9_)" points="275.3,437.8 273.8,428.1 283.5,426.7 285,436.3 				"/>
			</g>
		</g>
	</g>
</g>
<path fill="#FFFFFF" d="M279.4,434.2c0.1,0.3-0.2,0.7-0.5,0.7l-1.2,0.2c-0.3,0.1-0.7-0.2-0.7-0.5l-0.6-4.1c-0.1-0.3,0.2-0.7,0.5-0.7
	l1.2-0.2c0.3-0.1,0.7,0.2,0.7,0.5L279.4,434.2z"/>
<path fill="#FFFFFF" d="M282,431.5c0.1,0.3-0.2,0.7-0.5,0.7l-1.2,0.2c-0.3,0.1-0.7-0.2-0.7-0.5l-0.2-1.8c-0.1-0.3,0.2-0.7,0.5-0.7
	l1.2-0.2c0.3-0.1,0.7,0.2,0.7,0.5L282,431.5z"/>
<path fill="#26729E" d="M278.9,426.5c9.1,0,14.3-1.7,17.3-3.1c0.6-1.1,0-4.3,0-4.3l-35.3-1c0,0-1,1.3-1,4.5
	C262.5,424.4,270.2,426.5,278.9,426.5"/>
<path fill="#81919C" d="M280.6,409.4c22.4,0,31,3.7,31,3.7c0.1,0.1,0.6-1,0.6-6.7c0-8.1-1.7-11.6-2.3-14.6
	c-2.7-12.8-14.6-22.6-29.9-22.6c-12.8,0-23.8,7-28.2,16.9V386c0,0-5.1,10.8-5.1,26.5C251.3,408.8,258.3,409.4,280.6,409.4"/>
<path fill="#576F7A" d="M275,379.1c-2.6-1.5-5-1.6-5-1.6l4.7-2.2c0,0-2.5-1-5,0.7c3.9-4.9,8.5-5.7,8.7-5.7c-12.8,0-23.8,7-28.1,16.9
	v-0.1c0,0-5.1,10.8-5.1,26.5c2-1.6,4.5-2.4,8.5-2.8l24.7-22.6C278.3,388.4,274.4,381.5,275,379.1"/>
<path fill="#667D89" d="M273.2,377.5h0.5C273.7,377.5,273.5,377.4,273.2,377.5"/>
<path fill="#FFFFFF" d="M248.7,413.3l-1.2,3c0,0,5.1-1.4,8.7,0c2.9,1.1,7.2,5.2,22.1,5.1c14.8-0.1,23.5-4.9,25.8-5.1s4.1,0,4.1,0
	l-1.2-2.6l3.2,1.7c0,0-0.2-4.6-1.3-9.7c-1.1-5.1-6.4-6-8.9-5.4c5.1-11.9-4.7-18.7-11.1-18.7c-4.5,0-8.6,2.3-10.4,6.8
	c-2.4-5-5.9-6.8-10.4-6.8c-6.3,0-16.3,6.8-11.1,18.7c-2.9-0.2-6.3,0.8-8.8,5.4c-2,5.3-2.9,8.1-2.9,8.1L248.7,413.3z"/>
<path fill="#E6E9EB" d="M310.1,415.4c-2.9-3.7-8.2-6.1-15.7-4.1c-6.3,1.7-4.8,5.4-15.8,5.5s-10.6-7.1-22.2-7.1
	c-3.6,0-7.9,0.5-11.2,3.8c0,0.2,0,0.2,0,0.2l3.6-0.4l-1.2,3c0,0,5.1-1.4,8.7,0c2.9,1.1,7.2,5.2,22.1,5.1s23.5-4.9,25.8-5.1
	s4.1,0,4.1,0l-1.2-2.6L310.1,415.4z"/>
<path fill="#E6E9EB" d="M270.1,394.6c0,1.9-2,3.5-4.6,3.5c-2.5,0-4.6-1.6-4.6-3.5s2-3.5,4.6-3.5C268,391.1,270.1,392.7,270.1,394.6"
	/>
<path fill="#E6E9EB" d="M295.2,394.3c0,1.7-2,3.2-4.6,3.2c-2.5,0-4.6-1.4-4.6-3.2c0-1.7,2-3.2,4.6-3.2
	C293.2,391.2,295.2,392.6,295.2,394.3"/>
<path d="M268,410.6c0,0,1.4,13.1,9.7,14c10.8,1.2,11.8-14.2,11.8-14.2s-4,6.9-10.9,6.3C271.7,416.3,268,410.6,268,410.6"/>
<path fill="#FFD2D5" d="M271.3,414.4l-0.3,8.5c0.2,3.6,3.4,7.2,7.5,7.2s7.3-3.6,7.5-7.2l0.3-8.7c-1.8,0.8-4.8,1.4-7.7,1.4
	C275.9,415.6,273.7,415.2,271.3,414.4"/>
<path fill="#E8AFB4" d="M276.5,427.9c-4.3-1.3-3.5-9.7-3-12.8c-0.7-0.2-1.4-0.4-2.2-0.6L271,423c0.2,3.6,3.4,7.2,7.5,7.2
	c2.4,0,4.5-1.3,5.9-3.1C282.8,428.1,280.2,429.1,276.5,427.9"/>
<path d="M284.8,407.8c0,1.6-0.5,4.1-5.9,4.1c-5.2,0-5.9-2.4-5.9-4.1c0-1.6,1-3,5.9-3C284.1,404.9,284.8,406.2,284.8,407.8"/>
<path fill="#26729E" d="M270.1,393.3c0-2.5-1.4-4.4-3.1-4.4s-3.1,2-3.1,4.4c0,2.5,1.4,2.9,3.1,2.9
	C268.7,396.2,270.1,395.6,270.1,393.3"/>
<path d="M269,392.7c0-1.1-0.9-2-2-2s-2,0.9-2,2s0.9,2,2,2C268.1,394.6,269,393.7,269,392.7"/>
<path fill="#FFFFFF" d="M267.8,391.1c0,0.8-0.5,1.4-1.2,1.4s-1.2-0.6-1.2-1.4s0.5-1.4,1.2-1.4C267.2,389.7,267.8,390.4,267.8,391.1"
	/>
<path fill="#26729E" d="M292.9,393.3c0-2.5-1.4-4.4-3.1-4.4s-3.1,2-3.1,4.4c0,2.5,1.4,3,3.1,3S292.9,395.8,292.9,393.3"/>
<path d="M291.7,392.7c0-1.1-0.9-2-2-2s-2,0.9-2,2s0.9,2,2,2C290.8,394.6,291.7,393.7,291.7,392.7"/>
<path fill="#FFFFFF" d="M290.5,391.2c0,0.8-0.5,1.4-1.2,1.4s-1.2-0.6-1.2-1.4s0.5-1.4,1.2-1.4S290.5,390.4,290.5,391.2"/>
<path fill="#E8AFB4" d="M278.6,415.6c-2.7,0-4.8-0.5-7.2-1.2l-0.1,3.4c1.2,0.9,3.4,2.7,7.1,3.6c-0.7-3.1-1.7-5.1-1.7-5.1h3.9
	c0,0,0.5,2,0,4.8c2.7-0.6,4.5-1.9,5.7-3.3l0.1-3.6C284.5,415.1,281.5,415.6,278.6,415.6"/>
<path fill="#E8AFB4" d="M278.3,421.4c0.2,1.1,0.5,2.5,0.6,3.9c0.8-1.4,1.3-2.9,1.6-4.2C279.8,421.2,279.1,421.3,278.3,421.4
	L278.3,421.4"/>
<path fill="#D1868F" d="M280.4,416.3h-3.9c0,0,1,2,1.7,5.1h0.1c0.8-0.1,1.5-0.2,2.1-0.3C281,418.4,280.4,416.3,280.4,416.3"/>
<path d="M290.6,408.4c-0.7,3.5-4.3,7.9-12,8.4c-7.5,0.5-12.1-5.9-12.1-9c0,0,3.3,7.8,12.1,7.8C287.4,415.7,290.6,408.4,290.6,408.4"
	/>
<path fill="#576F7A" d="M274.4,371.6c-5.6-13.8-14.6-21-16.3-20.9c-1.7,0.2-5.8,9-7.9,19.6c-1.7,9.1,0.8,18.5,0.8,18.5"/>
<path fill="#BDC6CB" d="M266.5,370.1c1.1-3.5-5.1-16.5-7.9-17c-1.8-0.4-4.5,6.9-6.6,16.8s0,15.6,0,15.6s1-7.1,6.2-10.6
	C263.6,371.3,265.4,373.6,266.5,370.1"/>
<path fill="#D4DADD" d="M265.7,369.1c-0.1,1.9-4.8,1.8-8.8,4.6c1.1-3.7,3.7-4.2,3.7-4.2s-3.1-1.4-4.4-3.1c1.2-0.5,4.1,0.4,4.1,0.4
	s-2.3-1.5-2.7-5.5c2.3,0.3,3.2,2.9,3.2,2.9s-1.8-4.2,0.1-6.6C261.7,358.7,265.8,366.1,265.7,369.1"/>
<path fill="#81919C" d="M282.5,371.6c5.6-13.8,14.6-21,16.3-20.9s5.8,9,7.9,19.6c1.7,9.1-0.8,18.5-0.8,18.5"/>
<path fill="#D4DADD" d="M290.5,370.1c-1.1-3.5,5.1-16.5,7.9-17c1.8-0.4,4.5,6.9,6.6,16.8s-0.4,13.8-0.4,13.8s-0.7-5.3-5.9-8.9
	C293.4,371.3,291.6,373.6,290.5,370.1"/>
<path fill="#E6E9EB" d="M248.9,429.9c-0.7,5.1-1.8,9.7-1,14.9c0.7,4.4,2.5,5.4,6.8,5.3c4.9-0.1,8.5-2.3,9.2-7.4
	c0.5-3.6-0.1-7-1.7-10.3"/>
<path fill="#F0F2F3" d="M291.3,369.1c0.1,1.9,4.8,1.8,8.8,4.6c-1.1-3.7-3.7-4.2-3.7-4.2s3.1-1.4,4.4-3.1c-1.2-0.5-4.1,0.4-4.1,0.4
	s2.3-1.5,2.7-5.5c-2.3,0.3-3.2,2.9-3.2,2.9s1.8-4.2-0.1-6.6C295.2,358.7,291.2,366.1,291.3,369.1"/>
<path fill="#FFFFFF" d="M268.1,428.8c-0.1,6.6-5.6,10.8-12.4,10.8c-6.9,0-11.8-4.8-12.4-10.8c-0.8-7.3,5.6-13.3,12.4-13.3
	C262.6,415.5,268.2,421,268.1,428.8"/>
<path fill="#E8AFB4" d="M257.5,426.7c-3.5-1-7.6-0.2-9.3,3.6c-1.6,3.7,3.3,6.5,5.9,6.8c3.2,0.3,8.4-0.4,8.7-4.5
	C262.8,430,259.8,427.7,257.5,426.7"/>
<path fill="#E8AFB4" d="M249.3,420.1c-1.3,0.1-2.2,1.5-2.2,3.6c0.1,2.2,1,2.8,2.7,2.2c1.5-0.5,1.9-1.3,1.7-3.7
	C251.5,421.2,250.5,420.1,249.3,420.1"/>
<path fill="#E8AFB4" d="M257.1,418.6c-2.9-1.4-5.6,4.7-2.3,5.8c0.8,0.2,1.8,0.5,2.6,0c0.7-0.5,1.1-1.5,1.2-2.3
	C258.7,421.2,258.1,418.9,257.1,418.6"/>
<path fill="#E8AFB4" d="M263.1,420.9c-1.4-0.5-2.6,0.9-3.2,2.4c-0.8,2,0.2,3.3,1.7,3.6c1.6,0.3,2.5-0.4,2.8-2.2
	C264.6,423.8,264.5,421.4,263.1,420.9"/>
<path fill="#CDD3D7" d="M260.8,419c1.3-0.5,2.5-0.4,3.5,0.1c-1.9-1.9-4.4-3-7.2-3.3C259,416,260.4,417.2,260.8,419"/>
<path fill="#CDD3D7" d="M251.6,418.4c0.7-1.9,2.5-2.7,4.3-2.8c-0.1,0-0.2,0-0.2,0c-2.9,0-5.6,1-7.8,2.7
	C249,417.9,250.3,418,251.6,418.4"/>
<path fill="#FFFFFF" d="M286.2,440.8c0.1,6.6,5.6,10.8,12.4,10.8s11.8-4.8,12.4-10.8c0.8-7.3-5.6-13.3-12.4-13.3
	S286.1,432.9,286.2,440.8"/>
<path fill="#E8AFB4" d="M296.9,438.7c3.5-1,7.6-0.2,9.3,3.6c1.6,3.7-3.3,6.5-5.9,6.8c-3.2,0.3-8.4-0.4-8.7-4.5
	C291.5,442,294.5,439.6,296.9,438.7"/>
<path fill="#E8AFB4" d="M305,432.1c1.3,0.1,2.2,1.5,2.2,3.6c-0.1,2.2-1,2.8-2.7,2.2c-1.5-0.5-1.9-1.3-1.7-3.7
	C302.8,433.1,303.8,432,305,432.1"/>
<path fill="#E8AFB4" d="M297.3,430.5c2.9-1.4,5.6,4.7,2.3,5.8c-0.8,0.2-1.8,0.5-2.6,0c-0.7-0.5-1.1-1.5-1.2-2.3
	C295.7,433.2,296.2,430.9,297.3,430.5"/>
<path fill="#E8AFB4" d="M291.2,432.8c1.4-0.5,2.6,0.9,3.2,2.4c0.8,2-0.2,3.3-1.7,3.6c-1.6,0.3-2.5-0.4-2.8-2.2
	C289.7,435.7,289.8,433.4,291.2,432.8"/>
<path fill="#CDD3D7" d="M293.6,431c-1.3-0.5-3.1-0.2-4.5,1.2c1.7-3,5.5-4.2,8.2-4.5C295.3,427.9,293.9,429.2,293.6,431"/>
<path fill="#CDD3D7" d="M302.7,430.4c-0.7-1.9-2.5-2.7-4.3-2.8c0.1,0,0.2,0,0.2,0c2.9,0,7.1,1.6,9.4,4.2
	C306.2,430.1,304,429.9,302.7,430.4"/>
<path fill="#FFD2D5" d="M254.1,428c-1.5,0-2.9-0.2-3.9,1c-0.7,0.8-0.8,2.2-0.4,3.1c0.7,1.7,2.7,2.7,4.4,3c1.3,0.2,2.6,0.6,3.9,0.1
	c1.7-0.7,3.6-2.7,2.3-4.6c-1.3-1.8-3.9-2.5-6-2.7"/>
<path fill="#FFD2D5" d="M250.1,421.7c-0.9,0-1.4,0-1.7,0.9c-0.3,0.8-0.4,2.1,0.7,2.3c1.3,0.3,2-0.8,1.9-1.9
	C250.9,422.3,250.6,422.2,250.1,421.7"/>
<path fill="#FFD2D5" d="M257.1,419.9c-1.9-1-3.9,2.4-1.8,3.3c2.3,1,2.7-2.1,1.5-3.2"/>
<path fill="#FFD2D5" d="M262.4,421.8c-1,0.4-1.6,0.4-2,1.5c-0.4,0.9-0.6,2.7,0.9,2.6c1.7-0.2,2.3-2.8,1.4-3.9"/>
<path fill="#FFD2D5" d="M301.8,440.8c-2.7-0.2-4.8,0.1-7,1.6c-2.3,1.7-1.6,4.1,1,5.2c2.7,1.2,6.2,0.8,8.4-1.1
	c2.4-2.1,0.7-4.5-1.7-5.6"/>
<path fill="#FFD2D5" d="M292.8,434.1c-0.6-0.2-1.3-0.3-1.7,0.2c-0.5,0.5-0.6,2.6-0.1,3.2c0.8,0.9,2.5,0.5,2.7-0.6
	c0.2-0.7-0.2-2.1-1-2.3"/>
<path fill="#FFD2D5" d="M299.1,432c-1.6-0.5-2.7,1.9-1.7,3.2c1.4,1.8,3.8-1.9,1.4-3"/>
<path fill="#FFD2D5" d="M305.5,433.4c-1.4-0.5-2.6,2-2.2,3.1s2.1,1,2.6,0.1c0.7-1.1,0.2-1.9-0.4-2.9"/>
</svg>
